<svg xmlns="http://www.w3.org/2000/svg" height="1200" width="1600" version="1.1" xmlns:xlink="http://www.w3.org/1999/xlink" xmlns:svgjs="http://svgjs.com/svgjs"><rect fill="#effaff" width="1600" height="1200"></rect><g><path d="M874.65 904.54H851.38V1009.27H874.65V904.54Z" fill="#48466d" stroke="#333333" stroke-width="2" stroke-linecap="round" stroke-linejoin="round" opacity="1"></path><path d="M868.03 941.39H858.09V972.37H868.03V941.39Z" fill="#78c7e0" stroke="#333333" stroke-width="2" stroke-linecap="round" stroke-linejoin="round" opacity="1"></path><path d="M851.38 904.54H737.73V1009.27H851.38V904.54Z" fill="#48466d" stroke="#333333" stroke-width="2" stroke-linecap="round" stroke-linejoin="round" opacity="1"></path><path d="M851.38 1009.27V904.54" stroke="#333333" stroke-width="2" stroke-linecap="round" stroke-linejoin="round" opacity="1" fill="none"></path><path d="M863.06 993.51V904.54" stroke="#333333" stroke-width="2" stroke-linecap="round" stroke-linejoin="round" opacity="1" fill="none"></path><path d="M778.93 883.27H772.31V904.54H816.84V883.27H790.87" stroke="#333333" stroke-width="2" stroke-linecap="round" stroke-linejoin="round" opacity="1" fill="none"></path><path d="M786.88 883.27H782.75" stroke="#333333" stroke-width="2" stroke-linecap="round" stroke-linejoin="round" opacity="1" fill="none"></path><path d="M756.38 900.1V1009.27" stroke="#333333" stroke-width="2" stroke-linecap="round" stroke-linejoin="round" opacity="1" fill="none"></path><path d="M832.65 928.07V1009.27" stroke="#333333" stroke-width="2" stroke-linecap="round" stroke-linejoin="round" opacity="1" fill="none"></path><path d="M832.65 900.1V921.36" stroke="#333333" stroke-width="2" stroke-linecap="round" stroke-linejoin="round" opacity="1" fill="none"></path></g><g><path d="M787.33 303.05H984.02L992.32 313V466.38H780.49V313L787.33 303.05Z" fill="#46cdcf" stroke="#333333" stroke-width="2" stroke-linecap="round" stroke-linejoin="round" opacity="1"></path><path d="M982.06 290.82H971.8 780.49V313H971.8 982.06 992.32V290.82H982.06Z" fill="#3d84a8" stroke="#333333" stroke-width="2" stroke-linecap="round" stroke-linejoin="round" opacity="1"></path><path d="M971.8 313V290.82" stroke="#333333" stroke-width="2" stroke-linecap="round" stroke-linejoin="round" opacity="1" fill="none"></path><path d="M951.28 313V290.82" stroke="#333333" stroke-width="2" stroke-linecap="round" stroke-linejoin="round" opacity="1" fill="none"></path></g><g><path d="M993.4 581.9V485H780.2V661.1H920.1 993.4V581.9Z" fill="#abedd8" stroke="#333333" stroke-width="2" stroke-linecap="round" stroke-linejoin="round" opacity="1"></path><path d="M993.4 485H780.2V509.7H993.4V485Z" fill="#46cdcf" stroke="#333333" stroke-width="2" stroke-linecap="round" stroke-linejoin="round" opacity="1"></path><path d="M966.6 485H939.8V509.7H966.6V485Z" fill="#3d84a8" stroke="#333333" stroke-width="2" stroke-linecap="round" stroke-linejoin="round" opacity="1"></path><path d="M993.4 485H966.6V509.7H993.4V485Z" fill="#3d84a8" stroke="#333333" stroke-width="2" stroke-linecap="round" stroke-linejoin="round" opacity="1"></path><path d="M974.9 492.1L985.4 502.6" stroke="#333333" stroke-width="2" stroke-linecap="round" stroke-linejoin="round" opacity="1" fill="none"></path><path d="M974.9 502.6L985.4 492.1" stroke="#333333" stroke-width="2" stroke-linecap="round" stroke-linejoin="round" opacity="1" fill="none"></path><path d="M946.9 497.3H959.6" stroke="#333333" stroke-width="2" stroke-linecap="round" stroke-linejoin="round" opacity="1" fill="none"></path><path d="M915.9 541.5H962.6" stroke="#333333" stroke-width="2" stroke-linecap="round" stroke-linejoin="round" opacity="1" fill="none"></path><path d="M811.2 541.5H871.5" stroke="#333333" stroke-width="2" stroke-linecap="round" stroke-linejoin="round" opacity="1" fill="none"></path><path d="M858.5 574.4H962.6" stroke="#333333" stroke-width="2" stroke-linecap="round" stroke-linejoin="round" opacity="1" fill="none"></path><path d="M811.2 574.4H844.5" stroke="#333333" stroke-width="2" stroke-linecap="round" stroke-linejoin="round" opacity="1" fill="none"></path><path d="M934.3 607.5H962.6" stroke="#333333" stroke-width="2" stroke-linecap="round" stroke-linejoin="round" opacity="1" fill="none"></path><path d="M811.2 607.5H921.9" stroke="#333333" stroke-width="2" stroke-linecap="round" stroke-linejoin="round" opacity="1" fill="none"></path></g><g><path d="M545.8 510.3H622C640.6 510.3 655.5 495.2 655.5 476.8" stroke="#333333" stroke-width="2" stroke-linecap="round" stroke-linejoin="round" opacity="1" fill="none"></path><path d="M655.7 606.2V476.6" stroke="#333333" stroke-width="2" stroke-linecap="round" stroke-linejoin="round" opacity="1" fill="none"></path><path d="M397.1 281.6H638.2C647.8 281.6 655.6 289.4 655.6 299" stroke="#333333" stroke-width="2" stroke-linecap="round" stroke-linejoin="round" opacity="1" fill="none"></path><path d="M447.4 608.6V653.2C447.4 671.6 462.3 686.5 480.7 686.5H529" stroke="#333333" stroke-width="2" opacity="1" fill="none"></path><path d="M314.2 364.5V490C314.2 501.3 323.4 510.3 334.5 510.3" stroke="#333333" stroke-width="2" stroke-linecap="round" stroke-linejoin="round" opacity="1" fill="none"></path></g><g><path d="M768.04 798.78H825.94L834.88 756.89H777.05L768.04 798.78Z" fill="#48466d" stroke="#333333" stroke-width="2" stroke-linecap="round" stroke-linejoin="round" opacity="1"></path><path d="M843.88 798.78H786.05L777.05 756.89H834.94L843.88 798.78Z" fill="#48466d" stroke="#333333" stroke-width="2" stroke-linecap="round" stroke-linejoin="round" opacity="1"></path><path d="M791.18 775.08H797.37" stroke="#333333" stroke-width="2" stroke-linecap="round" stroke-linejoin="round" opacity="1" fill="none"></path><path d="M801.55 775.08H807.81" stroke="#333333" stroke-width="2" stroke-linecap="round" stroke-linejoin="round" opacity="1" fill="none"></path><path d="M812 775.08H818.19" stroke="#333333" stroke-width="2" stroke-linecap="round" stroke-linejoin="round" opacity="1" fill="none"></path><path d="M822.38 775.08H828.63" stroke="#333333" stroke-width="2" stroke-linecap="round" stroke-linejoin="round" opacity="1" fill="none"></path><path d="M792.74 782.4H798.93" stroke="#333333" stroke-width="2" stroke-linecap="round" stroke-linejoin="round" opacity="1" fill="none"></path><path d="M803.12 782.4H809.37" stroke="#333333" stroke-width="2" stroke-linecap="round" stroke-linejoin="round" opacity="1" fill="none"></path><path d="M813.56 782.4H819.75" stroke="#333333" stroke-width="2" stroke-linecap="round" stroke-linejoin="round" opacity="1" fill="none"></path><path d="M823.94 782.4H830.19" stroke="#333333" stroke-width="2" stroke-linecap="round" stroke-linejoin="round" opacity="1" fill="none"></path><path d="M794.3 789.71H800.49" stroke="#333333" stroke-width="2" stroke-linecap="round" stroke-linejoin="round" opacity="1" fill="none"></path><path d="M804.68 789.71H810.93" stroke="#333333" stroke-width="2" stroke-linecap="round" stroke-linejoin="round" opacity="1" fill="none"></path><path d="M815.12 789.71H821.31" stroke="#333333" stroke-width="2" stroke-linecap="round" stroke-linejoin="round" opacity="1" fill="none"></path><path d="M825.5 789.71H831.75" stroke="#333333" stroke-width="2" stroke-linecap="round" stroke-linejoin="round" opacity="1" fill="none"></path><path d="M783.8 756.89C783.8 754.51 785.74 752.57 788.11 752.57 790.49 752.57 792.43 754.51 792.43 756.89 792.43 759.26 790.49 761.2 788.11 761.2" stroke="#333333" stroke-width="2" stroke-linecap="round" stroke-linejoin="round" opacity="1" fill="none"></path><path d="M796.43 756.89C796.43 754.51 798.37 752.57 800.74 752.57 803.12 752.57 805.06 754.51 805.06 756.89 805.06 759.26 803.12 761.2 800.74 761.2" stroke="#333333" stroke-width="2" stroke-linecap="round" stroke-linejoin="round" opacity="1" fill="none"></path><path d="M809 756.89C809 754.51 810.93 752.57 813.31 752.57 815.69 752.57 817.62 754.51 817.62 756.89 817.62 759.26 815.69 761.2 813.31 761.2" stroke="#333333" stroke-width="2" stroke-linecap="round" stroke-linejoin="round" opacity="1" fill="none"></path><path d="M821.56 756.89C821.56 754.51 823.5 752.57 825.88 752.57 828.25 752.57 830.19 754.51 830.19 756.89 830.19 759.26 828.25 761.2 825.88 761.2" stroke="#333333" stroke-width="2" stroke-linecap="round" stroke-linejoin="round" opacity="1" fill="none"></path></g><g><path d="M516.4 955.2H478.1V991.2H516.4V955.2Z" fill="#78c7e0" stroke="#333333" stroke-width="2" stroke-linecap="round" stroke-linejoin="round" opacity="1"></path><path d="M506.8 973.2C506.8 978.6 502.6 982.8 497.2 982.8 491.8 982.8 487.6 978.6 487.6 973.2 487.6 967.8 491.8 963.6 497.2 963.6 502.5 963.6 506.8 967.9 506.8 973.2Z" fill="#78c7e0" stroke="#333333" stroke-width="2" stroke-linecap="round" stroke-linejoin="round" opacity="1"></path><path d="M497.2 973.2H563.8C578 973.2 589.4 961.7 589.4 947.6V788.7" stroke="#333333" stroke-width="2" stroke-linecap="round" stroke-linejoin="round" opacity="1" fill="none"></path></g><g><path d="M545.68 510.3C545.68 564.48 501.7 608.58 447.4 608.58 393.22 608.58 349.12 564.6 349.12 510.3 349.12 456 393.1 412.02 447.4 412.02 501.94 412.14 545.68 456.12 545.68 510.3Z" fill="#3d84a8" stroke="#333333" stroke-width="2" stroke-linecap="round" stroke-linejoin="round" opacity="1"></path><path d="M474.19 525.36C486.4 525.59 496.24 535.31 496.24 547.64V588.31H399.15V547.64C399.15 535.43 408.87 525.59 421.2 525.36H474.19Z" fill="#ffffff" stroke="#333333" stroke-width="2" stroke-linecap="round" stroke-linejoin="round" opacity="1"></path><path d="M419.07 515.28C419.07 530.93 431.75 543.61 447.4 543.61 463.05 543.61 475.97 530.93 475.97 515.28 475.97 511.6 475.26 508.28 474.19 505.08 474.19 505.08 467.44 496.43 447.64 496.43 427.96 496.43 421.08 505.08 421.08 505.08 419.78 508.28 419.07 511.72 419.07 515.28Z" fill="#ffffff" stroke="#333333" stroke-width="2" stroke-linecap="round" stroke-linejoin="round" opacity="1"></path><path d="M447.76 486.71C435.78 486.71 425.35 494.18 421.2 504.85H474.19C469.93 494.41 459.73 486.71 447.76 486.71Z" fill="#48466d" stroke="#333333" stroke-width="2" stroke-linecap="round" stroke-linejoin="round" opacity="1"></path><path d="M452.26 516.46V522.15" stroke="#333333" stroke-width="2" stroke-linecap="round" stroke-linejoin="round" opacity="1" fill="none"></path><path d="M445.86 522.15C445.86 523.93 447.16 525.36 449.06 525.36 450.84 525.36 452.26 524.05 452.26 522.15" stroke="#333333" stroke-width="2" stroke-linecap="round" stroke-linejoin="round" opacity="1" fill="none"></path><path d="M420.96 525.36H415.51C409.82 525.36 405.31 520.85 405.31 515.16 405.31 509.47 409.82 504.96 415.51 504.96H420.96V525.36Z" fill="#46cdcf" stroke="#333333" stroke-width="2" stroke-linecap="round" stroke-linejoin="round" opacity="1"></path><path d="M474.19 525.36H479.65C485.34 525.36 489.84 520.85 489.84 515.16 489.84 509.47 485.34 504.96 479.65 504.96H474.19V525.36Z" fill="#46cdcf" stroke="#333333" stroke-width="2" stroke-linecap="round" stroke-linejoin="round" opacity="1"></path><path d="M417.29 504.85V490.97C417.29 484.57 423.45 479.59 431.16 479.59H464.23C471.94 479.59 478.11 484.81 478.11 490.97V504.85" stroke="#333333" stroke-width="2" stroke-linecap="round" stroke-linejoin="round" opacity="1" fill="none"></path><path d="M476.09 564.6H444.32 388.24L395 593.41C410.17 602.89 428.19 608.58 447.4 608.58 466.61 608.58 484.74 603.13 499.92 593.41L506.56 564.6H476.09Z" fill="#78c7e0" stroke="#333333" stroke-width="2" stroke-linecap="round" stroke-linejoin="round" opacity="1"></path></g><g><path d="M738.3 393.9C738.3 439.6 701.2 476.8 655.4 476.8 609.7 476.8 572.5 439.7 572.5 393.9 572.5 348.1 609.6 311 655.4 311 701.4 311.1 738.3 348.2 738.3 393.9Z" fill="#78c7e0" stroke="#333333" stroke-width="2" stroke-linecap="round" stroke-linejoin="round" opacity="1"></path><path d="M678 406.6C688.3 406.8 696.6 415 696.6 425.4V459.7H614.7V425.4C614.7 415.1 622.9 406.8 633.3 406.6H678Z" fill="#ffffff" stroke="#333333" stroke-width="2" stroke-linecap="round" stroke-linejoin="round" opacity="1"></path><path d="M631.5 398.1C631.5 411.3 642.2 422 655.4 422 668.6 422 679.5 411.3 679.5 398.1 679.5 395 678.9 392.2 678 389.5 678 389.5 672.3 382.2 655.6 382.2 639 382.2 633.2 389.5 633.2 389.5 632.1 392.2 631.5 395.1 631.5 398.1Z" fill="#ffffff" stroke="#333333" stroke-width="2" stroke-linecap="round" stroke-linejoin="round" opacity="1"></path><path d="M655.7 374C645.6 374 636.8 380.3 633.3 389.3H678C674.4 380.5 665.8 374 655.7 374Z" fill="#48466d" stroke="#333333" stroke-width="2" stroke-linecap="round" stroke-linejoin="round" opacity="1"></path><path d="M659.5 399.1V403.9" stroke="#333333" stroke-width="2" stroke-linecap="round" stroke-linejoin="round" opacity="1" fill="none"></path><path d="M654.1 403.9C654.1 405.4 655.2 406.6 656.8 406.6 658.3 406.6 659.5 405.5 659.5 403.9" stroke="#333333" stroke-width="2" stroke-linecap="round" stroke-linejoin="round" opacity="1" fill="none"></path><path d="M633.1 406.6H628.5C623.7 406.6 619.9 402.8 619.9 398 619.9 393.2 623.7 389.4 628.5 389.4H633.1V406.6Z" fill="#46cdcf" stroke="#333333" stroke-width="2" stroke-linecap="round" stroke-linejoin="round" opacity="1"></path><path d="M678 406.6H682.6C687.4 406.6 691.2 402.8 691.2 398 691.2 393.2 687.4 389.4 682.6 389.4H678V406.6Z" fill="#46cdcf" stroke="#333333" stroke-width="2" stroke-linecap="round" stroke-linejoin="round" opacity="1"></path><path d="M630 389.3V377.6C630 372.2 635.2 368 641.7 368H669.6C676.1 368 681.3 372.4 681.3 377.6V389.3" stroke="#333333" stroke-width="2" stroke-linecap="round" stroke-linejoin="round" opacity="1" fill="none"></path><path d="M679.6 439.7H652.8 605.5L611.2 464C624 472 639.2 476.8 655.4 476.8 671.6 476.8 686.9 472.2 699.7 464L705.3 439.7H679.6Z" fill="#3d84a8" stroke="#333333" stroke-width="2" stroke-linecap="round" stroke-linejoin="round" opacity="1"></path></g><g><path d="M397 281.6C397 327.24 359.94 364.4 314.2 364.4 268.56 364.4 231.4 327.34 231.4 281.6 231.4 235.85 268.46 198.8 314.2 198.8 360.14 198.9 397 235.95 397 281.6Z" fill="#78c7e0" stroke="#333333" stroke-width="2" stroke-linecap="round" stroke-linejoin="round" opacity="1"></path><path d="M336.77 294.28C347.06 294.48 355.35 302.67 355.35 313.06V347.32H273.55V313.06C273.55 302.77 281.74 294.48 292.13 294.28H336.77Z" fill="#ffffff" stroke="#333333" stroke-width="2" stroke-linecap="round" stroke-linejoin="round" opacity="1"></path><path d="M290.33 285.79C290.33 298.98 301.02 309.67 314.2 309.67 327.38 309.67 338.27 298.98 338.27 285.79 338.27 282.7 337.67 279.9 336.77 277.2 336.77 277.2 331.08 269.91 314.4 269.91 297.82 269.91 292.03 277.2 292.03 277.2 290.93 279.9 290.33 282.8 290.33 285.79Z" fill="#ffffff" stroke="#333333" stroke-width="2" stroke-linecap="round" stroke-linejoin="round" opacity="1"></path><path d="M314.5 261.72C304.41 261.72 295.62 268.02 292.13 277H336.77C333.18 268.22 324.59 261.72 314.5 261.72Z" fill="#48466d" stroke="#333333" stroke-width="2" stroke-linecap="round" stroke-linejoin="round" opacity="1"></path><path d="M318.3 286.79V291.59" stroke="#333333" stroke-width="2" stroke-linecap="round" stroke-linejoin="round" opacity="1" fill="none"></path><path d="M312.9 291.59C312.9 293.09 314 294.28 315.6 294.28 317.1 294.28 318.3 293.19 318.3 291.59" stroke="#333333" stroke-width="2" stroke-linecap="round" stroke-linejoin="round" opacity="1" fill="none"></path><path d="M291.93 294.28H287.33C282.54 294.28 278.74 290.49 278.74 285.69 278.74 280.9 282.54 277.1 287.33 277.1H291.93V294.28Z" fill="#46cdcf" stroke="#333333" stroke-width="2" stroke-linecap="round" stroke-linejoin="round" opacity="1"></path><path d="M336.77 294.28H341.37C346.16 294.28 349.96 290.49 349.96 285.69 349.96 280.9 346.16 277.1 341.37 277.1H336.77V294.28Z" fill="#46cdcf" stroke="#333333" stroke-width="2" stroke-linecap="round" stroke-linejoin="round" opacity="1"></path><path d="M288.83 277V265.32C288.83 259.93 294.02 255.73 300.52 255.73H328.38C334.88 255.73 340.07 260.12 340.07 265.32V277" stroke="#333333" stroke-width="2" stroke-linecap="round" stroke-linejoin="round" opacity="1" fill="none"></path><path d="M338.37 327.34H311.6 264.36L270.05 351.61C282.84 359.6 298.02 364.4 314.2 364.4 330.38 364.4 345.66 359.8 358.45 351.61L364.04 327.34H338.37Z" fill="#3d84a8" stroke="#333333" stroke-width="2" stroke-linecap="round" stroke-linejoin="round" opacity="1"></path></g><g><path d="M641.97 642.05H671.1C678.83 642.05 685.04 635.79 685.04 628.11 685.04 620.38 678.78 614.17 671.1 614.17H641.97C634.24 614.17 628.03 620.43 628.03 628.11 628.03 635.79 634.24 642.05 641.97 642.05Z" fill="#48466d" stroke="#333333" stroke-width="2" stroke-linecap="round" stroke-linejoin="round" opacity="1"></path><path d="M739.18 659.89V650.18H575.02V745.07H739.18L739.18 666.27" fill="#78c7e0" opacity="1" stroke-width="2" stroke="none"></path><path d="M739.18 659.89V650.18H575.02V745.07H739.18L739.18 666.27" stroke="#333333" stroke-width="2" stroke-linecap="round" stroke-linejoin="round" opacity="1" fill="none"></path><path d="M617.19 677.22H697.07V718.03H617.19V677.22Z" stroke="#333333" stroke-width="2" stroke-linecap="round" stroke-linejoin="round" opacity="1" fill="none"></path><path d="M624.76 766.63L617.19 781.87" stroke="#333333" stroke-width="2" stroke-linecap="round" stroke-linejoin="round" opacity="1" fill="none"></path><path d="M657.1 701.38L628.09 759.86" stroke="#333333" stroke-width="2" stroke-linecap="round" stroke-linejoin="round" opacity="1" fill="none"></path><path d="M578.81 798.7H688.71C688.71 789.38 681.2 781.87 671.89 781.87H595.68C586.37 781.87 578.81 789.38 578.81 798.7Z" fill="#78c7e0" stroke="#333333" stroke-width="2" stroke-linecap="round" stroke-linejoin="round" opacity="1"></path><path d="M649.31 614.11H663.76C666.92 614.11 669.52 611.57 669.52 608.35 669.52 605.19 666.98 602.59 663.76 602.59H649.31C646.15 602.59 643.55 605.13 643.55 608.35 643.55 611.57 646.15 614.11 649.31 614.11Z" fill="#78c7e0" stroke="#333333" stroke-width="2" stroke-linecap="round" stroke-linejoin="round" opacity="1"></path><path d="M656.54 650.18V628.11" stroke="#333333" stroke-width="2" stroke-linecap="round" stroke-linejoin="round" opacity="1" fill="none"></path><path d="M762.6 790.85L702.99 787.12C700 786.96 697.52 789.27 697.52 792.26V798.64H762.6V790.85Z" fill="#48466d" stroke="#333333" stroke-width="2" stroke-linecap="round" stroke-linejoin="round" opacity="1"></path></g><g><path d="M1217.46 861.27H1314.13C1324.93 861.27 1333.77 852.43 1333.77 841.63 1333.77 830.82 1324.93 821.99 1314.13 821.99H1217.46C1206.66 821.99 1197.82 830.82 1197.82 841.63 1197.82 852.54 1206.66 861.27 1217.46 861.27Z" fill="#3d84a8" stroke="#333333" stroke-width="2" stroke-linecap="round" stroke-linejoin="round" opacity="1"></path><path d="M1265.8 861.27V1010.2" stroke="#333333" stroke-width="2" stroke-linecap="round" stroke-linejoin="round" opacity="1" fill="none"></path><path d="M1223.46 1010.2L1265.8 932.73 1308.13 1010.2" stroke="#333333" stroke-width="2" stroke-linecap="round" stroke-linejoin="round" opacity="1" fill="none"></path></g><g><path d="M1137.74 748.35L1067.9 735.42 997.94 748.35V1009.56H1137.74V748.35Z" fill="#48466d" stroke="#333333" stroke-width="2" stroke-linecap="round" stroke-linejoin="round" opacity="1"></path><path d="M938.3 628.71L903.8 613.53 882.81 660.84 997.94 717.28V748.35H1137.74V727.95C1153.51 727.95 1166.43 715.15 1166.43 699.26V634.52C1166.43 599.78 1138.21 571.56 1103.47 571.56H1036.72C1016.2 571.56 999.72 588.16 999.72 608.55V655.74L949.09 633.45" fill="#ffffff" opacity="1" stroke-width="2" stroke="none"></path><path d="M938.3 628.71L903.8 613.53 882.81 660.84 997.94 717.28V748.35H1137.74V727.95C1153.51 727.95 1166.43 715.15 1166.43 699.26V634.52C1166.43 599.78 1138.21 571.56 1103.47 571.56H1036.72C1016.2 571.56 999.72 588.16 999.72 608.55V655.74L949.09 633.45" stroke="#333333" stroke-width="2" stroke-linecap="round" stroke-linejoin="round" opacity="1" fill="none"></path><path d="M1048.81 529.94C1048.81 529.94 1084.03 508.83 1113.2 535.75 1119.24 541.32 1131.1 558.04 1121.85 580.1 1112.37 594.68 1094.82 602.86 1076.68 599.54 1044.78 593.73 1029.72 556.38 1048.81 529.94Z" fill="#ffffff" stroke="#333333" stroke-width="2" stroke-linecap="round" stroke-linejoin="round" opacity="1"></path><path d="M1062.8 548.67L1060.31 562.78" stroke="#333333" stroke-width="2" stroke-linecap="round" stroke-linejoin="round" opacity="1" fill="none"></path><path d="M1071.93 564.92C1071.34 568.12 1068.26 570.25 1065.06 569.66 1061.85 569.07 1059.72 565.99 1060.31 562.78" stroke="#333333" stroke-width="2" stroke-linecap="round" stroke-linejoin="round" opacity="1" fill="none"></path><path d="M1092.8 512.39C1123.75 518.08 1139.28 553.54 1121.97 580.1 1111.3 578.2 1104.3 568 1106.32 557.33L1109.28 541.09 1048.93 530.06C1058.53 516.54 1075.37 509.19 1092.8 512.39Z" fill="#48466d" stroke="#333333" stroke-width="2" stroke-linecap="round" stroke-linejoin="round" opacity="1"></path><path d="M957.75 603.34H1037.55L1046.68 660.01 1023.79 650.76 1005.77 702.94 1049.88 720.6H976.6L957.75 603.34Z" fill="#46cdcf" stroke="#333333" stroke-width="2" stroke-linecap="round" stroke-linejoin="round" opacity="1"></path><path d="M1137.74 727.95H1068.38L1049.88 720.6" stroke="#333333" stroke-width="2" stroke-linecap="round" stroke-linejoin="round" opacity="1" fill="none"></path><path d="M1108.69 653.02C1108.69 664.64 1118.06 674 1129.68 674H1081.3L1046.56 660.01" stroke="#333333" stroke-width="2" stroke-linecap="round" stroke-linejoin="round" opacity="1" fill="none"></path><path d="M1043 809.29V795.06" stroke="#333333" stroke-width="2" stroke-linecap="round" stroke-linejoin="round" opacity="1" fill="none"></path><path d="M1043 1009.56V819.49" stroke="#333333" stroke-width="2" stroke-linecap="round" stroke-linejoin="round" opacity="1" fill="none"></path></g><g><path d="M1129.62 1009.55L1445.98 1009.55" stroke="#333333" stroke-width="2" stroke-linecap="round" stroke-linejoin="round" opacity="1" fill="none"></path><path d="M154.02 1009.55L1061.31 1009.55" stroke="#333333" stroke-width="2" stroke-linecap="round" stroke-linejoin="round" opacity="1" fill="none"></path></g><g><path d="M524.6 1009.52V823.1" stroke="#333333" stroke-width="2" stroke-linecap="round" stroke-linejoin="round" opacity="1" fill="none"></path><path d="M892.89 1009.52V823.1" stroke="#333333" stroke-width="2" stroke-linecap="round" stroke-linejoin="round" opacity="1" fill="none"></path><path d="M561.36 823.1H504.79V798.71H912.6V823.1H601.69" fill="#3d84a8" opacity="1" stroke-width="2" stroke="none"></path><path d="M561.36 823.1H504.79V798.71H912.6V823.1H601.69" stroke="#333333" stroke-width="2" stroke-linecap="round" stroke-linejoin="round" opacity="1" fill="none"></path><path d="M590.92 823.1H571.01" stroke="#333333" stroke-width="2" stroke-linecap="round" stroke-linejoin="round" opacity="1" fill="none"></path></g><g><path d="M1152 459.84C1175 459.84 1193.65 441.19 1193.65 418.18 1193.65 395.18 1175 376.53 1152 376.53 1129 376.53 1110.35 395.18 1110.35 418.18 1110.35 441.19 1129 459.84 1152 459.84Z" fill="#abedd8" stroke="#333333" stroke-width="2" stroke-linecap="round" stroke-linejoin="round" opacity="1"></path><path d="M1130.78 403.41H1140.11" stroke="#333333" stroke-width="2" stroke-linecap="round" stroke-linejoin="round" opacity="1" fill="none"></path><path d="M1130.78 418.18H1173.22" stroke="#333333" stroke-width="2" stroke-linecap="round" stroke-linejoin="round" opacity="1" fill="none"></path><path d="M1130.78 432.85H1147.33" stroke="#333333" stroke-width="2" stroke-linecap="round" stroke-linejoin="round" opacity="1" fill="none"></path><path d="M1147.33 403.41H1156.78" stroke="#333333" stroke-width="2" stroke-linecap="round" stroke-linejoin="round" opacity="1" fill="none"></path><path d="M1164 403.41H1173.22" stroke="#333333" stroke-width="2" stroke-linecap="round" stroke-linejoin="round" opacity="1" fill="none"></path><path d="M1156.78 432.85H1173.22" stroke="#333333" stroke-width="2" stroke-linecap="round" stroke-linejoin="round" opacity="1" fill="none"></path><path d="M1152 459.84V486.05C1152 499.6 1141 510.27 1127.79 510.27H1116.01" stroke="#333333" stroke-width="2" stroke-linecap="round" stroke-linejoin="round" opacity="1" fill="none"></path></g><g><path d="M884.75 435.26C910.38 435.26 931.16 414.48 931.16 388.85 931.16 363.22 910.38 342.44 884.75 342.44 859.12 342.44 838.34 363.22 838.34 388.85 838.34 414.48 859.12 435.26 884.75 435.26Z" fill="#abedd8" stroke="#333333" stroke-width="2" stroke-linecap="round" stroke-linejoin="round" opacity="1"></path><path d="M858.1 402.05C857.37 397.79 856.96 393.28 856.96 388.6 856.96 362.86 869.42 342.2 884.75 342.61 900 342.2 912.55 363.1 912.55 388.6 912.55 414.35 900.08 435.01 884.75 435.01 875.24 435.01 866.88 426.97 861.79 414.68" stroke="#333333" stroke-width="2" stroke-linecap="round" stroke-linejoin="round" opacity="1" fill="none"></path><path d="M884.75 374.66V342.65" stroke="#333333" stroke-width="2" stroke-linecap="round" stroke-linejoin="round" opacity="1" fill="none"></path><path d="M884.75 435.14V383.19" stroke="#333333" stroke-width="2" stroke-linecap="round" stroke-linejoin="round" opacity="1" fill="none"></path><path d="M846.54 414.92H922.79" stroke="#333333" stroke-width="2" stroke-linecap="round" stroke-linejoin="round" opacity="1" fill="none"></path><path d="M838.34 388.85H931.16" stroke="#333333" stroke-width="2" stroke-linecap="round" stroke-linejoin="round" opacity="1" fill="none"></path><path d="M846.67 362.53H922.98" stroke="#333333" stroke-width="2" stroke-linecap="round" stroke-linejoin="round" opacity="1" fill="none"></path></g></svg>